<?xml version="1.0" encoding="utf-8"?>
<!-- Generator: Adobe Illustrator 17.0.0, SVG Export Plug-In . SVG Version: 6.00 Build 0)  -->
<!DOCTYPE svg PUBLIC "-//W3C//DTD SVG 1.1//EN" "http://www.w3.org/Graphics/SVG/1.1/DTD/svg11.dtd">
<svg version="1.1" id="Layer_1" xmlns="http://www.w3.org/2000/svg" xmlns:xlink="http://www.w3.org/1999/xlink" x="0px" y="0px"
	 width="150.136px" height="167.848px" viewBox="0 0 150.136 167.848" enable-background="new 0 0 150.136 167.848"
	 xml:space="preserve">
<g>
	<path fill="#EB5424" d="M119.195,135.786l-16.85-51.864l44.108-32.045H91.931L75.079,0.014L75.075,0h54.53l16.855,51.871V51.87
		l0.014-0.008C156.263,81.954,146.181,116.18,119.195,135.786 M30.961,135.786l-0.014,0.01l44.119,32.053l44.129-32.062
		l-44.115-32.054L30.961,135.786z M3.692,51.863L3.692,51.863c-10.304,31.721,1.657,65.333,27.26,83.928l0.004-0.016l16.852-51.861
		L3.71,51.876h54.508L75.071,0.014L75.075,0H20.541L3.692,51.863z"/>
</g>
</svg>
