<svg xmlns="http://www.w3.org/2000/svg" width="28.346" height="31.822" viewBox="0 0 28.346 31.822"><path fill="#fff" d="M4.148 8.587c2.59-2.59 5.55-3.975 8.88-4.152l-2.07-2.07L13.325 0l6.105 6.104-2.367 2.364c-1.468-.58-3.17-.7-5.1-.36-1.933.337-3.628 1.237-5.09 2.698-2.028 2.03-2.947 4.318-2.75 6.864.196 2.545 1.26 4.786 3.19 6.717 2.218 2.217 4.647 3.306 7.287 3.266 2.64-.037 4.903-1.003 6.79-2.892 1.48-1.476 2.387-3.206 2.72-5.188.334-1.98-.07-3.735-1.21-5.268l-3.352 3.353-2.325-2.325 6.76-6.757c.248.23.467.44.653.627 2.61 2.608 3.843 5.552 3.7 8.83-.143 3.275-1.617 6.317-4.42 9.12-3.357 3.357-6.814 4.904-10.372 4.642-3.558-.264-6.64-1.698-9.25-4.307-2.73-2.734-4.16-5.845-4.287-9.336-.124-3.49 1.257-6.678 4.14-9.563"/></svg>